<svg xmlns="http://www.w3.org/2000/svg" viewBox="0 0 1000 1000"><path d="M451.8 700.3c-76-7.9-144.5-26.6-203.1-72.5-7.3-5.7-14.8-11.2-21.4-17.6-25.7-24.7-28.3-52.9-7.9-82 17.4-24.9 46.5-31.6 76.9-17.3 5.9 2.8 11.5 6.2 16.8 9.9 109.3 75.1 259.4 77.2 369.2 3.4 10.9-8.3 22.5-15.1 36-18.6 26.2-6.7 50.6 2.9 64.7 25.8 16.1 26.2 15.8 51.7-3.9 72-30.3 31.1-66.8 53.7-107.4 69.4-38.3 14.9-80.3 22.3-121.9 27.3 6.3 6.8 9.2 10.2 13.2 14.1 56.4 56.7 113.1 113.2 169.3 170 19.2 19.4 23.2 43.4 12.6 65.9-11.5 24.6-37.4 40.8-62.7 39.1-16-1.1-28.5-9.1-39.7-20.3-42.6-42.8-86-84.9-127.7-128.6-12.1-12.7-18-10.3-28.7.7-42.8 44.1-86.4 87.5-130.2 130.7-19.7 19.4-43.1 22.9-65.9 11.8-24.2-11.7-39.7-36.5-38.5-61.4.8-16.8 9.1-29.7 20.6-41.2 55.8-55.8 111.5-111.7 167.3-167.5 3.6-3.4 7-7.4 12.4-13.1z" fill="currentColor"/><path d="M498 506c-135.5-.5-246.7-112.8-245.9-248.6C252.9 120.2 364.1 9.6 501 10c137.1.4 247.2 112.6 246.5 251.2C746.8 396.7 635 506.5 498 506zm123.2-248.2c-.2-67.4-53.9-121.1-121.2-121.1-67.8-.1-122 54.6-121.5 122.6.5 67.1 54.6 120.4 122.1 120.2 67.3-.3 120.8-54.3 120.6-121.7z" fill="currentColor"/></svg>
