<svg xmlns="http://www.w3.org/2000/svg" xmlns:xlink="http://www.w3.org/1999/xlink"><symbol id="icon-inst" viewBox="0 0 169 169"><path fill="currentColor" d="M122.406 0H46.654C20.929 0 0 20.93 0 46.655v75.752c0 25.726 20.929 46.655 46.654 46.655h75.752c25.727 0 46.656-20.93 46.656-46.655V46.655C169.063 20.93 148.133 0 122.406 0zm31.657 122.407c0 17.455-14.201 31.655-31.656 31.655H46.654C29.2 154.063 15 139.862 15 122.407V46.655C15 29.201 29.2 15 46.654 15h75.752c17.455 0 31.656 14.201 31.656 31.655v75.752z"/><path fill="currentColor" d="M84.531 40.97c-24.021 0-43.563 19.542-43.563 43.563 0 24.02 19.542 43.561 43.563 43.561s43.563-19.541 43.563-43.561c0-24.021-19.542-43.563-43.563-43.563zm0 72.123c-15.749 0-28.563-12.812-28.563-28.561 0-15.75 12.813-28.563 28.563-28.563s28.563 12.813 28.563 28.563c0 15.749-12.814 28.561-28.563 28.561zM129.921 28.251c-2.89 0-5.729 1.17-7.77 3.22a11.053 11.053 0 00-3.23 7.78c0 2.891 1.18 5.73 3.23 7.78 2.04 2.04 4.88 3.22 7.77 3.22 2.9 0 5.73-1.18 7.78-3.22 2.05-2.05 3.22-4.89 3.22-7.78 0-2.9-1.17-5.74-3.22-7.78-2.04-2.05-4.88-3.22-7.78-3.22z"/></symbol><symbol id="icon-ok" viewBox="0 0 1000 1000"><path d="M451.8 700.3c-76-7.9-144.5-26.6-203.1-72.5-7.3-5.7-14.8-11.2-21.4-17.6-25.7-24.7-28.3-52.9-7.9-82 17.4-24.9 46.5-31.6 76.9-17.3 5.9 2.8 11.5 6.2 16.8 9.9 109.3 75.1 259.4 77.2 369.2 3.4 10.9-8.3 22.5-15.1 36-18.6 26.2-6.7 50.6 2.9 64.7 25.8 16.1 26.2 15.8 51.7-3.9 72-30.3 31.1-66.8 53.7-107.4 69.4-38.3 14.9-80.3 22.3-121.9 27.3 6.3 6.8 9.2 10.2 13.2 14.1 56.4 56.7 113.1 113.2 169.3 170 19.2 19.4 23.2 43.4 12.6 65.9-11.5 24.6-37.4 40.8-62.7 39.1-16-1.1-28.5-9.1-39.7-20.3-42.6-42.8-86-84.9-127.7-128.6-12.1-12.7-18-10.3-28.7.7-42.8 44.1-86.4 87.5-130.2 130.7-19.7 19.4-43.1 22.9-65.9 11.8-24.2-11.7-39.7-36.5-38.5-61.4.8-16.8 9.1-29.7 20.6-41.2 55.8-55.8 111.5-111.7 167.3-167.5 3.6-3.4 7-7.4 12.4-13.1z" fill="currentColor"/><path d="M498 506c-135.5-.5-246.7-112.8-245.9-248.6C252.9 120.2 364.1 9.6 501 10c137.1.4 247.2 112.6 246.5 251.2C746.8 396.7 635 506.5 498 506zm123.2-248.2c-.2-67.4-53.9-121.1-121.2-121.1-67.8-.1-122 54.6-121.5 122.6.5 67.1 54.6 120.4 122.1 120.2 67.3-.3 120.8-54.3 120.6-121.7z" fill="currentColor"/></symbol><symbol id="icon-ruble" viewBox="0 0 510 510"><path fill="currentColor" d="M34.786 428.963h81.158v69.572c0 3.385 1.083 6.156 3.262 8.322 2.173 2.18 4.951 3.27 8.335 3.27h60.502c3.14 0 5.857-1.09 8.152-3.27 2.295-2.166 3.439-4.938 3.439-8.322v-69.572h182.964c3.377 0 6.156-1.076 8.334-3.256 2.18-2.178 3.262-4.951 3.262-8.336v-46.377c0-3.365-1.082-6.156-3.262-8.322-2.172-2.18-4.957-3.27-8.334-3.27h-182.97v-42.754h123.184c48.305 0 87.73-14.719 118.293-44.199 30.551-29.449 45.834-67.49 45.834-114.125 0-46.604-15.283-84.646-45.834-114.125C410.548 14.749 371.116 0 322.812 0H127.535c-3.385 0-6.157 1.089-8.335 3.256-2.173 2.179-3.262 4.969-3.262 8.335v227.896H34.786c-3.384 0-6.157 1.145-8.335 3.439-2.172 2.295-3.262 5.012-3.262 8.151v53.978c0 3.385 1.083 6.158 3.262 8.336 2.179 2.18 4.945 3.256 8.335 3.256h81.158v42.754H34.786c-3.384 0-6.157 1.09-8.335 3.27-2.172 2.166-3.262 4.951-3.262 8.322v46.377c0 3.385 1.083 6.158 3.262 8.336 2.178 2.181 4.95 3.257 8.335 3.257zM199.628 77.179h115.938c25.6 0 46.248 7.485 61.953 22.46 15.697 14.976 23.549 34.547 23.549 58.691 0 24.156-7.852 43.733-23.549 58.691-15.705 14.988-36.354 22.473-61.953 22.473H199.628V77.179z"/></symbol><symbol id="icon-user" viewBox="0 0 24 24"><path fill="currentColor" d="M19 7.001c0 3.865-3.134 7-7 7s-7-3.135-7-7c0-3.867 3.134-7.001 7-7.001s7 3.134 7 7.001zm-1.598 7.18c-1.506 1.137-3.374 1.82-5.402 1.82-2.03 0-3.899-.685-5.407-1.822-4.072 1.793-6.593 7.376-6.593 9.821h24c0-2.423-2.6-8.006-6.598-9.819z"/></symbol><symbol id="icon-vk" viewBox="0 0 17 10">
<path fill-rule="evenodd" clip-rule="evenodd" d="M14.4676 6.3741C15.0175 6.89154 15.5979 7.37838 16.091 7.948C16.3089 8.20113 16.5151 8.46234 16.6729 8.7561C16.8965 9.17369 16.694 9.63323 16.3055 9.65817L13.8906 9.65712C13.2678 9.70693 12.7709 9.46525 12.3531 9.05479C12.0188 8.72654 11.7091 8.37719 11.3876 8.03787C11.2558 7.89918 11.1179 7.76868 10.9531 7.66552C10.6234 7.45927 10.3373 7.52242 10.1489 7.85382C9.957 8.19089 9.91349 8.56413 9.89464 8.93978C9.86877 9.48787 9.69689 9.63197 9.12568 9.65706C7.90494 9.71255 6.7464 9.53454 5.67016 8.94098C4.7213 8.41772 3.98551 7.67901 3.34507 6.84272C2.09814 5.21429 1.14324 3.4249 0.28501 1.58539C0.0918297 1.17094 0.233107 0.948472 0.707535 0.940598C1.49534 0.925847 2.28304 0.926897 3.07178 0.939548C3.39197 0.944062 3.60394 1.12107 3.72757 1.41263C4.1538 2.42278 4.67534 3.38385 5.32998 4.27469C5.50432 4.51186 5.68209 4.74903 5.93523 4.91596C6.21528 5.10079 6.4285 5.03953 6.56025 4.73884C6.64385 4.54818 6.68045 4.34283 6.69929 4.13862C6.76171 3.43609 6.76993 2.73476 6.66046 2.03469C6.59325 1.59778 6.33793 1.31494 5.88562 1.23226C5.6548 1.1901 5.68917 1.10732 5.80093 0.980336C5.99503 0.761329 6.17759 0.625 6.54151 0.625H9.27071C9.70037 0.706734 9.79579 0.892775 9.85461 1.30948L9.85696 4.23148C9.85227 4.3928 9.94056 4.8715 10.242 4.97827C10.4833 5.05428 10.6423 4.86824 10.7871 4.72079C11.4405 4.05232 11.9069 3.26233 12.3235 2.44431C12.5084 2.08461 12.6674 1.71106 12.8215 1.33782C12.9356 1.06086 13.1148 0.924587 13.4384 0.930623L16.0652 0.932881C16.143 0.932881 16.2218 0.933983 16.2973 0.946424C16.7399 1.01913 16.8612 1.20265 16.7245 1.61925C16.5091 2.27286 16.09 2.81754 15.6802 3.36475C15.2422 3.94896 14.7737 4.51317 14.3393 5.10085C13.9402 5.6375 13.9719 5.908 14.4676 6.3741Z" fill="currentColor"/>
</symbol><symbol id="icon-youtube" viewBox="0 0 24 24"><path fill="currentColor" d="M4.652 0h1.44l.988 3.702.916-3.702h1.454l-1.665 5.505v3.757h-1.431v-3.757l-1.702-5.505zm6.594 2.373c-1.119 0-1.861.74-1.861 1.835v3.349c0 1.204.629 1.831 1.861 1.831 1.022 0 1.826-.683 1.826-1.831v-3.349c0-1.069-.797-1.835-1.826-1.835zm.531 5.127c0 .372-.19.646-.532.646-.351 0-.554-.287-.554-.646v-3.179c0-.374.172-.651.529-.651.39 0 .557.269.557.651v3.179zm4.729-5.07v5.186c-.155.194-.5.512-.747.512-.271 0-.338-.186-.338-.46v-5.238h-1.27v5.71c0 .675.206 1.22.887 1.22.384 0 .918-.2 1.468-.853v.754h1.27v-6.831h-1.27zm2.203 13.858c-.448 0-.541.315-.541.763v.659h1.069v-.66c.001-.44-.092-.762-.528-.762zm-4.703.04c-.084.043-.167.109-.25.198v4.055c.099.106.194.182.287.229.197.1.485.107.619-.067.07-.092.105-.241.105-.449v-3.359c0-.22-.043-.386-.129-.5-.147-.193-.42-.214-.632-.107zm4.827-5.195c-2.604-.177-11.066-.177-13.666 0-2.814.192-3.146 1.892-3.167 6.367.021 4.467.35 6.175 3.167 6.367 2.6.177 11.062.177 13.666 0 2.814-.192 3.146-1.893 3.167-6.367-.021-4.467-.35-6.175-3.167-6.367zm-12.324 10.686h-1.363v-7.54h-1.41v-1.28h4.182v1.28h-1.41v7.54zm4.846 0h-1.21v-.718c-.223.265-.455.467-.696.605-.652.374-1.547.365-1.547-.955v-5.438h1.209v4.988c0 .262.063.438.322.438.236 0 .564-.303.711-.487v-4.939h1.21v6.506zm4.657-1.348c0 .805-.301 1.431-1.106 1.431-.443 0-.812-.162-1.149-.583v.5h-1.221v-8.82h1.221v2.84c.273-.333.644-.608 1.076-.608.886 0 1.18.749 1.18 1.631v3.609zm4.471-1.752h-2.314v1.228c0 .488.042.91.528.91.511 0 .541-.344.541-.91v-.452h1.245v.489c0 1.253-.538 2.013-1.813 2.013-1.155 0-1.746-.842-1.746-2.013v-2.921c0-1.129.746-1.914 1.837-1.914 1.161 0 1.721.738 1.721 1.914v1.656z"/></symbol></svg>